<svg width="25" height="25" viewBox="0 0 25 25" fill="none" xmlns="http://www.w3.org/2000/svg">
<path fill-rule="evenodd" clip-rule="evenodd" d="M16.5235 3.92187H21.75C22.5297 3.92187 23.1766 4.52813 23.3735 5.34844C23.4258 5.57031 23.4336 5.75625 23.3 5.95391C23.2364 6.04977 23.15 6.1284 23.0486 6.18279C22.9472 6.23718 22.8339 6.26564 22.7188 6.26563H22.6563V23.4375H2.34379V6.26563H2.26566C2.14793 6.26549 2.03214 6.23563 1.92903 6.17882C1.82592 6.122 1.73882 6.04007 1.67582 5.94063C1.543 5.73438 1.56019 5.53437 1.61722 5.30625C1.81488 4.50703 2.45316 3.92187 3.21879 3.92187H8.44535C8.84998 3.20671 9.43696 2.61158 10.1465 2.19712C10.856 1.78266 11.6627 1.56368 12.4844 1.5625C13.3061 1.56368 14.1128 1.78266 14.8223 2.19712C15.5319 2.61158 16.1188 3.20671 16.5235 3.92187ZM7.81253 23.1406C7.81253 22.875 8.03128 22.6562 8.29769 22.6562H8.59378V6.26563H7.81253V23.1406ZM16.7024 22.6562H16.4063V6.26563H17.1875V23.1406C17.1875 22.875 16.9688 22.6562 16.7024 22.6562ZM12.4922 2.34375H12.4961C12.4948 2.34375 12.4935 2.34375 12.4922 2.34375ZM4.68754 16.6453V18.507C4.68754 18.6398 4.57816 18.75 4.43754 18.75H3.36722C3.23441 18.75 3.12504 18.6406 3.12504 18.5078V16.6453C3.12504 16.5125 3.23441 16.4031 3.36722 16.4031H4.44535C4.57816 16.4031 4.68754 16.5125 4.68754 16.6453ZM7.03128 16.6453V18.507C7.03128 18.6398 6.92191 18.75 6.78129 18.75H5.71097C5.57816 18.75 5.46878 18.6406 5.46878 18.5078V16.6453C5.46878 16.5125 5.57816 16.4031 5.71097 16.4031H6.7891C6.92191 16.4031 7.03128 16.5125 7.03128 16.6453ZM4.68754 12.7328V14.5953C4.68754 14.7281 4.57816 14.8375 4.43754 14.8375H3.36722C3.23441 14.8375 3.12504 14.7281 3.12504 14.5953V12.7328C3.12504 12.6 3.23441 12.4906 3.36722 12.4906H4.44535C4.57816 12.4906 4.68754 12.6 4.68754 12.7328ZM7.03128 12.7328V14.5953C7.03128 14.7281 6.92191 14.8375 6.78129 14.8375H5.71097C5.57816 14.8375 5.46878 14.7281 5.46878 14.5953V12.7328C5.46878 12.6 5.57816 12.4906 5.71097 12.4906H6.7891C6.92191 12.4906 7.03128 12.6 7.03128 12.7328ZM4.68754 8.83672V10.6984C4.68754 10.8313 4.57816 10.9406 4.43754 10.9406H3.36722C3.23441 10.9406 3.12504 10.8313 3.12504 10.6984V8.83594C3.12504 8.70313 3.23441 8.59375 3.36722 8.59375H4.44535C4.57816 8.59375 4.68754 8.70391 4.68754 8.83672ZM7.03128 8.83672V10.6984C7.03128 10.8313 6.92191 10.9406 6.78129 10.9406H5.71097C5.57816 10.9406 5.46878 10.8313 5.46878 10.6984V8.83594C5.46878 8.70313 5.57816 8.59375 5.71097 8.59375H6.7891C6.92191 8.59375 7.03128 8.70391 7.03128 8.83672ZM19.5266 16.6453V18.507C19.5266 18.6398 19.4172 18.75 19.2844 18.75H18.211C18.1467 18.7498 18.0852 18.7242 18.0397 18.6789C17.9942 18.6335 17.9684 18.5721 17.968 18.5078V16.6453C17.968 16.5125 18.0774 16.4031 18.2102 16.4031H19.2828C19.4157 16.4031 19.5266 16.5125 19.5266 16.6453ZM21.875 16.6453V18.507C21.875 18.6398 21.7657 18.75 21.6328 18.75H20.5602C20.4959 18.7498 20.4344 18.7242 20.3889 18.6789C20.3434 18.6335 20.3176 18.5721 20.3172 18.5078V16.6453C20.3172 16.5125 20.4266 16.4031 20.5594 16.4031H21.6321C21.7649 16.4031 21.875 16.5125 21.875 16.6453ZM19.5266 12.7328V14.5953C19.5266 14.7281 19.4172 14.8375 19.2844 14.8375H18.211C18.1467 14.8373 18.0852 14.8117 18.0397 14.7664C17.9942 14.721 17.9684 14.6596 17.968 14.5953V12.7328C17.968 12.6 18.0774 12.4906 18.2102 12.4906H19.2828C19.4157 12.4906 19.5266 12.6 19.5266 12.7328ZM21.875 12.7328V14.5953C21.875 14.7281 21.7657 14.8375 21.6328 14.8375H20.5602C20.4959 14.8373 20.4344 14.8117 20.3889 14.7664C20.3434 14.721 20.3176 14.6596 20.3172 14.5953V12.7328C20.3172 12.6 20.4266 12.4906 20.5594 12.4906H21.6321C21.7649 12.4906 21.875 12.6 21.875 12.7328ZM19.5266 8.83672V10.6984C19.5266 10.8313 19.4172 10.9406 19.2844 10.9406H18.211C18.1467 10.9404 18.0852 10.9149 18.0397 10.8695C17.9942 10.8242 17.9684 10.7627 17.968 10.6984V8.83594C17.968 8.70313 18.0774 8.59375 18.2102 8.59375H19.2828C19.4157 8.59375 19.5258 8.70313 19.5258 8.83594L19.5266 8.83672ZM21.875 8.83672V10.6984C21.875 10.8313 21.7657 10.9406 21.6328 10.9406H20.5602C20.4959 10.9404 20.4344 10.9149 20.3889 10.8695C20.3434 10.8242 20.3176 10.7627 20.3172 10.6984V8.83594C20.3172 8.70313 20.4266 8.59375 20.5594 8.59375H21.6321C21.7649 8.59375 21.875 8.70391 21.875 8.83672ZM11.7188 10.3984V12.2578C11.7188 12.3906 11.6094 12.5 11.475 12.5H10.4C10.3357 12.5 10.2739 12.4745 10.2282 12.4292C10.1826 12.3838 10.1567 12.3222 10.1563 12.2578V10.3984C10.1563 10.2656 10.2657 10.1562 10.4 10.1562H11.475C11.6086 10.1562 11.7188 10.2656 11.7188 10.3984ZM11.8258 21.0938H10.4399C10.4022 21.0935 10.365 21.0859 10.3303 21.0712C10.2957 21.0566 10.2642 21.0352 10.2379 21.0083C10.2115 20.9814 10.1907 20.9496 10.1767 20.9147C10.1627 20.8797 10.1558 20.8423 10.1563 20.8047V17.1891H12.1094V20.8055C12.1094 20.9695 11.9789 21.0938 11.8258 21.0938ZM12.8907 16.4078V16.4062H12.1094V16.4078H10.1563V16.4062H9.3391C9.29267 16.4067 9.24661 16.3979 9.2036 16.3804C9.16058 16.3629 9.12146 16.3371 9.08848 16.3044C9.05551 16.2717 9.02933 16.2328 9.01147 16.19C8.9936 16.1471 8.98441 16.1011 8.98441 16.0547C8.98441 15.9922 9.00785 15.9375 9.03129 15.8906C9.03597 15.8859 9.03832 15.8844 9.0391 15.882V15.875C9.3956 15.2725 9.90303 14.7733 10.5113 14.4266C11.1196 14.08 11.8077 13.898 12.5078 13.8984C13.208 13.898 13.8961 14.08 14.5044 14.4266C15.1127 14.7733 15.6201 15.2725 15.9766 15.875C15.9805 15.8789 15.9805 15.8844 15.9805 15.8906C15.9805 15.8969 15.9805 15.9023 15.9844 15.9063C16.0078 15.9453 16.0157 16 16.0157 16.0547C16.0157 16.1011 16.0065 16.1471 15.9886 16.19C15.9707 16.2328 15.9446 16.2717 15.9116 16.3044C15.8786 16.3371 15.8395 16.3629 15.7965 16.3804C15.7535 16.3979 15.7074 16.4067 15.661 16.4062H14.8438V16.4078H12.8907ZM12.8907 17.1891V20.8055C12.8907 20.9695 13.0211 21.0938 13.1743 21.0938H14.5602C14.7133 21.0938 14.8438 20.9687 14.8438 20.8047V17.1891H12.8907ZM14.8438 12.2578V10.3984C14.8438 10.2656 14.7344 10.1562 14.6 10.1562H13.525C13.4607 10.1565 13.3991 10.182 13.3535 10.2273C13.3078 10.2726 13.2819 10.3341 13.2813 10.3984V12.2578C13.2813 12.3906 13.3907 12.5 13.525 12.5H14.6C14.7336 12.5 14.8438 12.3906 14.8438 12.2578ZM13.6805 4.6875H13.6649C13.5636 4.68791 13.4667 4.72843 13.3952 4.80017C13.3237 4.87192 13.2836 4.96905 13.2836 5.07031V6.25H11.7172V5.07031C11.7172 4.96878 11.6769 4.87141 11.6051 4.79962C11.5333 4.72783 11.4359 4.6875 11.3344 4.6875H11.3188C11.2175 4.68791 11.1206 4.72843 11.0491 4.80017C10.9777 4.87192 10.9375 4.96905 10.9375 5.07031V8.21094C10.9375 8.42188 11.1094 8.59375 11.3196 8.59375H11.3352C11.4366 8.59354 11.5338 8.55312 11.6054 8.48135C11.677 8.40958 11.7172 8.31233 11.7172 8.21094V7.03906H13.2836V8.21094C13.2836 8.42188 13.4547 8.59375 13.6649 8.59375H13.6805C13.7819 8.59354 13.8791 8.55312 13.9507 8.48135C14.0223 8.40958 14.0625 8.31233 14.0625 8.21094V5.07031C14.0625 4.96892 14.0223 4.87167 13.9507 4.7999C13.8791 4.72813 13.7819 4.68771 13.6805 4.6875Z" fill="black"/>
</svg>
