<svg width="31" height="30" viewBox="0 0 31 30" fill="none" xmlns="http://www.w3.org/2000/svg">
<ellipse cx="15.5" cy="15" rx="15.5" ry="15" fill="white"/>
<path d="M20.8233 15.1207L15.3969 21.1563C15.3521 21.205 15.3175 21.2621 15.295 21.3242C15.2725 21.3864 15.2625 21.4523 15.2657 21.5184C15.2688 21.5844 15.285 21.6491 15.3134 21.7089C15.3417 21.7686 15.3816 21.8221 15.4308 21.8663C15.4799 21.9105 15.5374 21.9445 15.5998 21.9663C15.6621 21.9882 15.7282 21.9974 15.7942 21.9936C15.8602 21.9897 15.9248 21.9728 15.9842 21.9438C16.0436 21.9148 16.0967 21.8743 16.1403 21.8247L21.8913 15.4274C21.9784 15.3306 22.0242 15.2036 22.0191 15.0735C22.0139 14.9434 21.9582 14.8204 21.8638 14.7308L15.6265 8.8067C15.579 8.76067 15.5229 8.72451 15.4614 8.7003C15.3999 8.67609 15.3342 8.66432 15.2681 8.66567C15.202 8.66702 15.1369 8.68146 15.0764 8.70816C15.0159 8.73486 14.9614 8.77328 14.9159 8.82121C14.8703 8.86914 14.8348 8.92562 14.8112 8.98739C14.7877 9.04915 14.7766 9.11497 14.7787 9.18104C14.7807 9.2471 14.7959 9.31211 14.8232 9.37228C14.8506 9.43246 14.8896 9.48662 14.938 9.53162L20.8233 15.1207Z" fill="#1E1E1E"/>
</svg>
