<svg width="25" height="25" viewBox="0 0 25 25" fill="none" xmlns="http://www.w3.org/2000/svg">
<path d="M22.4687 13.1875C22.3229 12.7708 21.927 12.5 21.4583 12.5H13.9687C13.4895 12.5 13.1041 12.7708 12.9479 13.1875L11.4583 17.4688V23.2083C11.4583 23.6042 11.7916 23.9583 12.1875 23.9583H12.8333C13.2291 23.9583 13.5416 23.5625 13.5416 23.1667V21.875H21.875V23.1667C21.875 23.5625 22.1979 23.9583 22.5937 23.9583H23.2291C23.625 23.9583 23.9583 23.6042 23.9583 23.2083V17.4688L22.4687 13.1875ZM13.9687 13.5417H21.4583L22.5312 16.6667H12.8958L13.9687 13.5417ZM13.5416 19.7917C12.9687 19.7917 12.5 19.3229 12.5 18.75C12.5 18.1771 12.9687 17.7083 13.5416 17.7083C14.1145 17.7083 14.5833 18.1771 14.5833 18.75C14.5833 19.3229 14.1145 19.7917 13.5416 19.7917ZM21.875 19.7917C21.302 19.7917 20.8333 19.3229 20.8333 18.75C20.8333 18.1771 21.302 17.7083 21.875 17.7083C22.4479 17.7083 22.9166 18.1771 22.9166 18.75C22.9166 19.3229 22.4479 19.7917 21.875 19.7917ZM6.93746 15.1354L7.29163 17.7083L6.19788 18.8125L4.36454 15.5L1.04163 13.6562L2.14579 12.5312L4.74996 12.9167L8.78121 8.88542L1.04163 4.8125L2.52079 3.34375L12.0937 5.55208L16.1458 1.5C16.7291 0.890625 17.7708 0.890625 18.3541 1.5C18.9687 2.11458 18.9687 3.125 18.3541 3.70833L14.302 7.76042L15.1562 11.4583H13.9687C13.0625 11.4583 12.2812 11.9792 11.9791 12.8229L11.9479 12.8854L11 11.0729L6.93746 15.1354Z" fill="black" fill-opacity="0.8"/>
</svg>
