<svg width="25" height="25" viewBox="0 0 25 25" fill="none" xmlns="http://www.w3.org/2000/svg">
<path d="M18.75 2.5H21.25C21.913 2.5 22.5489 2.76339 23.0178 3.23223C23.4866 3.70107 23.75 4.33696 23.75 5V22.5C23.75 23.163 23.4866 23.7989 23.0178 24.2678C22.5489 24.7366 21.913 25 21.25 25H3.75C3.08696 25 2.45107 24.7366 1.98223 24.2678C1.51339 23.7989 1.25 23.163 1.25 22.5V5C1.25 3.625 2.375 2.5 3.75 2.5H6.25V0H8.75V2.5H16.25V0H18.75V2.5ZM3.75 7.5V22.5H21.25V7.5H3.75ZM11.25 13.75V11.25H13.75V13.75H16.25V16.25H13.75V18.75H11.25V16.25H8.75V13.75H11.25Z" fill="black" fill-opacity="0.8"/>
</svg>
